<?xml version="1.0" encoding="utf-8"?>
<svg width="44px" height="37px" viewBox="0 0 44 37" version="1.1" xmlns:xlink="http://www.w3.org/1999/xlink" xmlns="http://www.w3.org/2000/svg">
  <desc>Created with Lunacy</desc>
  <path d="M44 11.8461L32.1539 11.8461C28.6546 11.8461 25.8077 14.693 25.8077 18.1923C25.8077 21.6916 28.6546 24.5384 32.1539 24.5384L44 24.5384L44 30.0384C44 33.5377 41.1531 36.3846 37.6539 36.3846L6.34614 36.3846C2.84685 36.3846 0 33.5377 0 30.0384L0 6.34614C0 2.84685 2.84685 0 6.34614 0L37.6539 0C41.1531 0 44 2.84685 44 6.34614L44 11.8461ZM32.1539 14.3846C30.0543 14.3846 28.3461 16.0927 28.3461 18.1923C28.3461 20.2919 30.0542 22 32.1539 22L44 22L44 14.3846L32.1539 14.3846L32.1539 14.3846ZM33.8461 19.4615L32.1539 19.4615C31.4529 19.4615 30.8846 18.8932 30.8846 18.1923C30.8846 17.4914 31.453 16.9231 32.1539 16.9231L33.8461 16.9231C34.5471 16.9231 35.1153 17.4914 35.1153 18.1923C35.1153 18.8932 34.5471 19.4615 33.8461 19.4615Z" id="Combined-Shape" fill="#FFFFFF" fill-rule="evenodd" stroke="none" />
</svg>