<?xml version="1.0" encoding="utf-8"?>
<svg width="333px" height="80px" viewBox="0 0 333 80" version="1.1" xmlns:xlink="http://www.w3.org/1999/xlink" xmlns="http://www.w3.org/2000/svg">
  <desc>Created with Lunacy</desc>
  <defs>
    <linearGradient x1="-1.110223E-16" y1="0.5" x2="1" y2="0.5" id="gradient_1">
      <stop offset="0" stop-color="#FA4A84" />
      <stop offset="1" stop-color="#7E51FF" />
    </linearGradient>
  </defs>
  <g id="Color_Logo">
    <path d="M56.0816 1.02041L56.0816 5.17583C58.474 1.60911 62.1224 0 66.788 0C68.9843 0 70.708 0.313972 72.1208 0.824177L70.5902 10.9796C68.9058 10.2355 66.474 9.76454 64.3955 9.76454C59.6499 9.76454 56.3955 12.6656 56.3955 18.3124L56.3955 39.0189L46.1616 39.0189L46.1616 1.02041L56.0816 1.02041ZM9.99845 5.21555C12.471 2.11664 16.1178 0.000470958 21.3313 0.000470958C31.8431 0.000470958 39.763 8.58918 39.763 19.9989C39.763 31.4118 31.8431 39.9974 21.3721 39.9974C16.2748 39.9974 12.6656 37.999 10.1947 35.057L10.1947 53.3271L0 53.3287L0 1.01931L9.99845 1.01931L9.99845 5.21555ZM73.4981 19.9989C73.4981 8.54836 82.2014 0.000470958 94.0067 0.000470958C105.848 0.000470958 114.594 8.54836 114.594 19.9989C114.594 31.4495 105.848 39.9974 94.0067 39.9974C82.2014 39.9974 73.4981 31.4495 73.4981 19.9989ZM168.521 5.21555C170.993 2.11664 174.64 0.000470958 179.854 0.000470958C190.365 0.000470958 198.285 8.58918 198.285 19.9989C198.285 31.4118 190.365 39.9974 179.894 39.9974C174.797 39.9974 171.188 37.999 168.717 35.057L168.717 53.3271L158.522 53.3271L158.522 1.01931L168.521 1.01931L168.521 5.21555ZM232.093 1.01931L232.093 5.21555C229.583 2.11664 225.938 0.000470958 220.721 0.000470958C210.252 0.000470958 202.33 8.58918 202.33 19.9989C202.33 31.4118 210.252 39.9974 220.721 39.9974C225.938 39.9974 229.624 37.8812 232.093 34.8216L232.093 39.0178L242.093 39.0178L242.093 1.01931L232.093 1.01931ZM136.207 15.2162L139.577 15.7248C147.813 16.9807 152.401 20.6652 152.401 27.0969C152.401 34.9399 145.97 39.998 134.951 39.998C129.775 39.998 122.992 39.0184 118.05 35.5271L122.087 27.7641C125.343 29.9211 129.304 31.4894 135.029 31.4894C139.773 31.4894 142.048 30.155 142.048 27.9211C142.048 26.0781 140.128 25.0577 135.736 24.4313L132.637 23.9996C123.852 22.7829 119.5 18.9415 119.5 12.4705C119.5 4.66673 125.539 0.0403454 135.539 0.0403454C141.618 0.0403454 146.362 1.17536 151.422 3.64789L147.97 11.6071C144.951 10.1173 140.128 8.54899 135.852 8.50975C131.97 8.50975 130.009 9.8818 130.009 11.9603C130.009 14.1565 132.755 14.706 136.207 15.2162ZM9.68604 19.9989C9.68604 25.9989 13.6468 30.4699 19.4506 30.4699C25.4898 30.4699 29.2544 25.8027 29.2544 19.9989C29.2544 14.1952 25.4898 9.52796 19.4506 9.52796C13.6468 9.52796 9.68604 13.9989 9.68604 19.9989ZM83.9282 19.9989C83.9282 26.1559 88.2406 30.4699 94.0067 30.4699C99.7713 30.4699 104.123 26.1559 104.123 19.9989C104.123 13.8419 99.7713 9.52796 94.0067 9.52796C88.2406 9.52796 83.9282 13.8419 83.9282 19.9989ZM168.208 19.9989C168.208 25.9989 172.169 30.4699 177.973 30.4699C184.012 30.4699 187.777 25.8027 187.777 19.9989C187.777 14.1952 184.012 9.52796 177.973 9.52796C172.169 9.52796 168.208 13.9989 168.208 19.9989ZM222.604 30.4699C216.605 30.4699 212.801 25.8027 212.801 19.9989C212.801 14.1952 216.605 9.52796 222.604 9.52796C228.448 9.52796 232.407 13.9989 232.407 19.9989C232.407 25.9989 228.448 30.4699 222.604 30.4699Z" transform="translate(90 13.36755)" id="Combined-Shape" fill="#FFFFFF" fill-rule="evenodd" stroke="none" />
    <path d="M30.3077 0.133312C12.9969 1.65608 0 16.7032 0 34.08L0 59.9984C0 62.3391 0.409734 64.584 1.14757 66.6703C3.15699 72.3548 7.64522 76.8446 13.3281 78.854C15.416 79.6075 17.6609 80 20 80C22.3407 80 24.584 79.6075 26.6578 78.8697C32.4914 76.8069 37.0848 72.113 38.9938 66.215C39.0063 66.2056 39.0158 66.1962 39.0283 66.1852C54.7269 63.4851 66.6736 49.7943 66.6736 33.3437C66.6736 13.9324 50.0817 -1.60766 30.3077 0.133312ZM38.6045 52.6373C36.9247 53.0926 33.2811 53.3438 33.2591 53.3438C29.7803 53.3438 26.6578 56.3453 26.6578 59.7174C26.6578 63.5588 23.5432 66.6703 19.7033 66.6703C16.1837 66.6703 13.3281 63.8179 13.3281 60.2982L13.3281 33.3437C13.3281 22.0187 22.7426 12.901 34.1523 13.3594C44.4867 13.7754 53.0048 22.3798 53.3203 32.7189C53.6108 42.2056 47.2874 50.2606 38.6045 52.6373ZM26.6572 33.359C26.6572 29.6698 29.6384 26.687 33.3291 26.687C37.0183 26.687 40.001 29.6698 40.001 33.359C40.001 37.0497 37.0183 40.0309 33.3291 40.0309L26.6572 40.0309L26.6572 33.359Z" id="Combined-Shape" fill="url(#gradient_1)" fill-rule="evenodd" stroke="none" />
  </g>
</svg>