<?xml version="1.0" encoding="utf-8"?>
<svg width="68px" height="56px" viewBox="0 0 68 56" version="1.1" xmlns:xlink="http://www.w3.org/1999/xlink" xmlns="http://www.w3.org/2000/svg">
  <desc>Created with Lunacy</desc>
  <path d="M67.721 18.2326L49.4885 18.2326C44.1027 18.2326 39.721 22.6142 39.721 28C39.721 33.3858 44.1027 37.7674 49.4885 37.7674L67.721 37.7674L67.721 46.2326C67.721 51.6184 63.3394 56 57.9536 56L9.76744 56C4.38163 56 0 51.6184 0 46.2326L0 9.76744C0 4.38163 4.38163 0 9.76744 0L57.9536 0C63.3394 0 67.721 4.38163 67.721 9.76744L67.721 18.2326ZM49.4885 22.1395C46.257 22.1395 43.6279 24.7684 43.6279 28C43.6279 31.2316 46.2569 33.8605 49.4885 33.8605L67.721 33.8605L67.721 22.1396L49.4885 22.1396L49.4885 22.1395ZM52.0931 29.9535L49.4885 29.9535C48.4096 29.9535 47.535 29.0788 47.535 28C47.535 26.9212 48.4097 26.0465 49.4885 26.0465L52.0931 26.0465C53.172 26.0465 54.0465 26.9212 54.0465 28C54.0465 29.0788 53.172 29.9535 52.0931 29.9535Z" id="Combined-Shape" fill="#7E51FF" fill-rule="evenodd" stroke="none" />
</svg>