<?xml version="1.0" encoding="utf-8"?>
<svg width="44px" height="44px" viewBox="0 0 44 44" version="1.1" xmlns:xlink="http://www.w3.org/1999/xlink" xmlns="http://www.w3.org/2000/svg">
  <desc>Created with Lunacy</desc>
  <g id="3.-Icons/Basic/Notification">
    <g id="Icon" transform="translate(2.444444 2.444444)">
      <path d="M18.0889 0.488889L0.977778 13.3222C0.362253 13.7839 0 14.5084 0 15.2778L0 36.0556C0 37.4056 1.09442 38.5 2.44444 38.5L36.6667 38.5C38.0167 38.5 39.1111 37.4056 39.1111 36.0556L39.1111 15.2778C39.1111 14.5084 38.7489 13.7839 38.1333 13.3222L21.0222 0.488889C20.1531 -0.162963 18.958 -0.162963 18.0889 0.488889ZM33.5687 16.0098L19.5556 5.5L5.54243 16.0098L19.5556 24.8497L33.5687 16.0098ZM4.88889 33.6111L4.88889 20.4865L16.9472 28.0931C18.5408 29.0984 20.5703 29.0984 22.164 28.0931L34.2222 20.4865L34.2222 33.6111L4.88889 33.6111Z" transform="translate(-3.473764E-14 0.6111166)" id="Shape" fill="#72809D" fill-rule="evenodd" stroke="none" />
    </g>
  </g>
</svg>