<?xml version="1.0" encoding="utf-8"?>
<svg width="40px" height="44px" viewBox="0 0 40 44" version="1.1" xmlns:xlink="http://www.w3.org/1999/xlink" xmlns="http://www.w3.org/2000/svg">
  <desc>Created with Lunacy</desc>
  <path d="M1.56465 0L38.4347 0C39.2989 0 39.9993 0.700546 39.9994 1.56465L39.9994 37.8264C39.9994 38.2414 39.8345 38.6394 39.5411 38.9328L34.9323 43.5417C34.6267 43.8473 34.2263 44 33.8259 44C33.4254 44 33.0251 43.8472 32.7195 43.5417L29.2171 40.0392L25.7148 43.5417C25.4214 43.8351 25.0234 44 24.6084 44C24.1935 44 23.7955 43.8351 23.5021 43.5417L19.9997 40.0392L16.4975 43.5417C16.204 43.8352 15.806 44 15.391 44C14.976 44 14.5781 43.8351 14.2846 43.5417L10.7823 40.0392L7.2799 43.5417C6.66885 44.1527 5.67811 44.1527 5.06717 43.5417L0.458338 38.9328C0.164914 38.6393 0 38.2414 0 37.8264L0 1.56465C0 0.700546 0.700546 0 1.56465 0ZM28.4071 18.6634L11.648 18.6634C10.7839 18.6634 10.0833 19.364 10.0833 20.2281C10.0833 21.0922 10.7839 21.7927 11.648 21.7927L28.4071 21.7927C29.2712 21.7927 29.9717 21.0922 29.9717 20.2281C29.9717 19.364 29.2712 18.6634 28.4071 18.6634ZM11.648 26.6633L28.4071 26.6633C29.2712 26.6633 29.9717 27.3639 29.9717 28.228C29.9717 29.0921 29.2712 29.7926 28.4071 29.7926L11.648 29.7926C10.7839 29.7926 10.0833 29.0921 10.0833 28.228C10.0833 27.3639 10.7839 26.6633 11.648 26.6633Z" id="Combined-Shape" fill="#FFFFFF" fill-rule="evenodd" stroke="none" />
</svg>