<?xml version="1.0" encoding="utf-8"?>
<svg width="44px" height="44px" viewBox="0 0 44 44" version="1.1" xmlns:xlink="http://www.w3.org/1999/xlink" xmlns="http://www.w3.org/2000/svg">
  <desc>Created with Lunacy</desc>
  <path d="M13.75 8.25C13.75 12.8063 17.4437 16.5 22 16.5C26.5563 16.5 30.25 12.8063 30.25 8.25C30.25 3.69365 26.5563 0 22 0C17.4437 0 13.75 3.69365 13.75 8.25ZM15.125 21.8281L16.5 22.9625C19.6934 25.5971 24.3066 25.5971 27.5 22.9625L28.875 21.8281L38.6468 25.4925C41.8668 26.7 44 29.7783 44 33.2173L44 44L0 44L0 33.2173C0 29.7783 2.13323 26.7 5.35323 25.4925L15.125 21.8281ZM5.5 33.2173C5.5 32.0709 6.21108 31.0448 7.28441 30.6423L14.1569 28.0652C18.8987 31.2295 25.1013 31.2295 29.8431 28.0652L36.7156 30.6423C37.7889 31.0448 38.5 32.0709 38.5 33.2173L38.5 38.5L5.5 38.5L5.5 33.2173Z" id="Shape" fill="#FFFFFF" fill-rule="evenodd" stroke="none" />
</svg>