<?xml version="1.0" encoding="utf-8"?>
<svg width="50px" height="65px" viewBox="0 0 50 65" version="1.1" xmlns:xlink="http://www.w3.org/1999/xlink" xmlns="http://www.w3.org/2000/svg">
  <desc>Created with Lunacy</desc>
  <path d="M30.1842 0.000121651C29.3658 -0.00724614 28.5791 0.320338 28.0078 0.906928C25.9579 2.79309 22.8039 2.79309 20.7534 0.906928C20.177 0.326572 19.3926 0.000121651 18.5748 0.000121651C17.757 0.000121651 16.9726 0.326572 16.3962 0.906928C15.8402 1.3966 15.2009 1.78256 14.5089 2.04667L19.2889 11.6072L29.461 11.6072L34.241 2.04554C33.5501 1.782 32.912 1.39604 32.3571 0.906928C31.787 0.320338 31.002 -0.0066794 30.1842 0.000121651ZM45.4537 14.8808C46.5129 15.6227 47.8267 15.9072 49.0985 15.6697L48.7034 13.3835C47.9661 13.5132 47.2083 13.3285 46.6144 12.8728C44.3972 11.3516 41.3702 11.8884 39.8128 14.0794C39.4081 14.7085 38.7609 15.1415 38.0252 15.2753C37.6903 15.3416 37.3446 15.3297 37.0153 15.2401C37.7039 15.0639 38.3403 14.7255 38.8725 14.254C39.8655 13.4282 40.4912 12.2431 40.6136 10.9572C40.6397 10.2102 40.9825 9.50912 41.5555 9.02851C42.1291 8.54847 42.8789 8.33367 43.6197 8.43852C44.9107 8.55527 46.1933 8.14041 47.1715 7.28971L45.6741 5.5135C45.0994 5.98504 44.3581 6.20268 43.6197 6.1171C42.3314 6.00885 41.0534 6.41804 40.0678 7.25457C39.0771 8.08203 38.4514 9.26598 38.3267 10.5514C38.2939 11.2972 37.9498 11.9949 37.3791 12.4761C36.8078 12.9567 36.0609 13.1766 35.3207 13.0814C34.6049 13.0275 33.8857 13.1227 33.2078 13.3602C33.5014 13.8896 33.6567 14.4841 33.6606 15.0894C33.6601 15.477 33.5938 15.8619 33.4634 16.2269C33.9384 16.3124 34.3895 16.4983 34.7868 16.7726C35.595 17.3162 36.5409 17.6177 37.514 17.6432C37.8223 17.6392 38.1289 17.608 38.431 17.5502C39.7073 17.34 40.8454 16.6241 41.5884 15.5655C41.988 14.9347 42.6346 14.5011 43.3697 14.3707C44.1054 14.2404 44.8614 14.4257 45.4537 14.8808ZM31.3392 15.0894C31.3392 14.4484 30.8195 13.9287 30.1785 13.9287L18.5714 13.9287C17.9304 13.9287 17.4107 14.4484 17.4107 15.0894C17.4107 15.7304 17.9304 16.2501 18.5714 16.2501L30.1785 16.2501C30.8195 16.2501 31.3392 15.7304 31.3392 15.0894ZM48.7499 40.625C48.7363 28.4512 38.8708 18.5851 26.6964 18.5715L22.0535 18.5715C9.87909 18.5851 0.0136021 28.4512 0 40.625L0 61.5179C0 63.4409 1.55914 65 3.48214 65L45.2678 65C47.1908 65 48.7499 63.4409 48.7499 61.5179L48.7499 40.625ZM24.375 59.1964C15.4004 59.1964 8.12498 51.921 8.12498 42.9465C8.12498 33.9719 15.4004 26.6965 24.375 26.6965C33.3495 26.6965 40.6249 33.9719 40.6249 42.9465C40.6153 51.9171 33.3455 59.1868 24.375 59.1964ZM24.375 29.0179C16.6824 29.0179 10.4464 35.2539 10.4464 42.9465C10.4464 50.639 16.6824 56.875 24.375 56.875C32.0675 56.875 38.3035 50.639 38.3035 42.9465C38.295 35.2573 32.0641 29.0264 24.375 29.0179ZM23.2142 38.3036C23.2142 36.3806 21.6551 34.8215 19.7321 34.8215C17.8091 34.8215 16.25 36.3806 16.25 38.3036C16.25 40.2266 17.8091 41.7858 19.7321 41.7858C21.6551 41.7858 23.2142 40.2266 23.2142 38.3036ZM18.2313 50.7314L16.59 49.0901L30.5186 35.1615L32.1599 36.8029L18.2313 50.7314ZM19.7321 39.4643C20.3731 39.4643 20.8928 38.9446 20.8928 38.3036C20.8928 37.6626 20.3731 37.1429 19.7321 37.1429C19.0911 37.1429 18.5714 37.6626 18.5714 38.3036C18.5714 38.9446 19.0911 39.4643 19.7321 39.4643ZM25.5357 47.5893C25.5357 49.5123 27.0948 51.0715 29.0178 51.0715C30.9408 51.0715 32.4999 49.5123 32.4999 47.5893C32.4999 45.6663 30.9408 44.1072 29.0178 44.1072C27.0948 44.1072 25.5357 45.6663 25.5357 47.5893ZM29.0178 48.75C29.6588 48.75 30.1785 48.2303 30.1785 47.5893C30.1785 46.9483 29.6588 46.4286 29.0178 46.4286C28.3768 46.4286 27.8571 46.9483 27.8571 47.5893C27.8571 48.2303 28.3768 48.75 29.0178 48.75Z" id="Combined-Shape" fill="#BB53F2" fill-rule="evenodd" stroke="none" />
</svg>