<?xml version="1.0" encoding="utf-8"?>
<svg width="39px" height="44px" viewBox="0 0 39 44" version="1.1" xmlns:xlink="http://www.w3.org/1999/xlink" xmlns="http://www.w3.org/2000/svg">
  <desc>Created with Lunacy</desc>
  <path d="M2.33575 2.26009L13.0363 0.506394C17.1546 -0.168798 21.3454 -0.168798 25.4637 0.506394L36.1642 2.26009C37.5078 2.48035 38.5 3.72277 38.5 5.184L38.5 27.7059C38.5 28.5695 38.1497 29.3898 37.54 29.9518L24.6191 41.8637C21.5294 44.7121 16.9706 44.7121 13.8809 41.8637L0.960083 29.9518C0.675414 29.6892 0.447145 29.37 0.284669 29.0165C0.0993652 28.6136 0 28.1659 0 27.7059L0 5.184C0 3.72277 0.99231 2.48035 2.33575 2.26009ZM5.5 26.6566L5.5 7.31488L13.9258 5.93399C17.4552 5.35536 21.0448 5.35536 24.5738 5.93393L33 7.3149L33 26.6566L20.8911 37.8199C19.9075 38.7267 18.5925 38.7267 17.6089 37.8199L5.5 26.6566ZM22 21.2642C23.6442 20.3132 24.75 18.5357 24.75 16.5C24.75 13.4623 22.2873 11 19.25 11C16.2127 11 13.75 13.4623 13.75 16.5C13.75 18.5357 14.8558 20.3132 16.5 21.2642L16.5 27.5001C16.5 29.0188 17.7313 30.25 19.25 30.25C20.7687 30.25 22 29.0188 22 27.5001L22 21.2642Z" id="Shape" fill="#FFFFFF" fill-rule="evenodd" stroke="none" />
</svg>