<?xml version="1.0" encoding="utf-8"?>
<svg width="44px" height="44px" viewBox="0 0 44 44" version="1.1" xmlns:xlink="http://www.w3.org/1999/xlink" xmlns="http://www.w3.org/2000/svg">
  <desc>Created with Lunacy</desc>
  <path d="M43.8611 19.5572C44.0476 21.2234 44.0451 22.906 43.8515 24.5604C43.7751 25.2042 43.1945 25.6901 42.5637 25.6389L42.2917 25.6318C40.347 25.6318 38.5389 26.8299 37.7912 28.6141C36.9957 30.5097 37.4926 32.7159 39.0237 34.1024C39.5039 34.5369 39.5611 35.2703 39.1552 35.7744C38.1088 37.0776 36.9121 38.2612 35.5959 39.2932C35.0894 39.6848 34.3706 39.6276 33.9358 39.1543C32.6268 37.7167 30.2976 37.1752 28.4871 37.9147C26.6143 38.6816 25.4034 40.5675 25.4772 42.6063C25.4987 43.2465 25.026 43.796 24.388 43.8664C23.5831 43.9557 22.7779 44 21.9729 44C21.1249 44 20.2792 43.951 19.4385 43.8529C18.7959 43.7789 18.3207 43.2154 18.3588 42.5678C18.4757 40.5065 17.2813 38.5873 15.3824 37.7929C13.5695 37.032 11.2141 37.5707 9.89788 39.0265C9.46095 39.508 8.72751 39.5655 8.22345 39.1593C6.9383 38.1248 5.76531 36.9401 4.74308 35.638C4.34643 35.1353 4.40619 34.4126 4.87684 33.9804C6.38168 32.601 6.87609 30.4153 6.10696 28.5402C5.33542 26.6626 3.4961 25.4765 1.58034 25.5254C0.94989 25.5254 0.206802 25.0647 0.137716 24.4436C-0.0485882 22.7774 -0.0462961 21.0933 0.147211 19.4404C0.223501 18.8062 0.720367 18.338 1.41794 18.3604C3.56765 18.3604 5.44541 17.195 6.20489 15.3866C7.00036 13.4898 6.50595 11.284 4.97474 9.89733C4.49705 9.46268 4.43729 8.7304 4.84345 8.22518C5.88483 6.92565 7.08402 5.741 8.40255 4.70651C8.90645 4.31376 9.63023 4.37206 10.0627 4.84618C11.3715 6.28552 13.7104 6.82068 15.5088 6.08612C17.3841 5.31798 18.5929 3.43219 18.5213 1.39217C18.4998 0.753206 18.9728 0.203789 19.6106 0.133393C21.2588 -0.0494731 22.9166 -0.0435795 24.5599 0.14649C25.2051 0.221634 25.6781 0.784311 25.6396 1.43146C25.5227 3.49178 26.7171 5.41112 28.6114 6.20791C30.4316 6.96739 32.7869 6.42763 34.0983 4.97534C34.5331 4.49385 35.2687 4.43787 35.7703 4.84026C37.0509 5.8661 38.2238 7.04972 39.2555 8.36007C39.6521 8.86284 39.5946 9.58662 39.1219 10.019C37.6193 11.3973 37.1249 13.5841 37.8916 15.4593C38.6418 17.2901 40.4309 18.4739 42.4468 18.4739C43.0705 18.4739 43.7916 18.9386 43.8611 19.5572Z" id="Path" fill="#FFFFFF" stroke="none" />
</svg>