<?xml version="1.0" encoding="utf-8"?>
<svg width="44px" height="41px" viewBox="0 0 44 41" version="1.1" xmlns:xlink="http://www.w3.org/1999/xlink" xmlns="http://www.w3.org/2000/svg">
  <desc>Created with Lunacy</desc>
  <path d="M0 41L8.11492 32.8L38.2667 32.8C41.2858 32.8 43.7333 30.3525 43.7333 27.3333L43.7333 5.46667C43.7333 2.44751 41.2858 0 38.2667 0L5.46667 0C2.44751 0 0 2.44751 0 5.46667L0 41ZM5.46667 27.3333L38.2667 27.3333L38.2667 5.46667L5.46667 5.46667L5.46667 27.3333ZM8.2 8.2L35.5333 8.2L35.5333 13.6667L8.2 13.6667L8.2 8.2ZM24.6 16.4L8.2 16.4L8.2 21.8667L24.6 21.8667L24.6 16.4Z" id="Shape" fill="#FFFFFF" fill-rule="evenodd" stroke="none" />
</svg>