<?xml version="1.0" encoding="utf-8"?>
<svg width="66px" height="76px" viewBox="0 0 66 76" version="1.1" xmlns:xlink="http://www.w3.org/1999/xlink" xmlns="http://www.w3.org/2000/svg">
  <desc>Created with Lunacy</desc>
  <path d="M38.2533 19.1425C38.2533 29.7033 29.6875 38.2692 19.1267 38.2692C8.56583 38.2692 0 29.6875 0 19.1267C0 8.56583 8.56583 0 19.1267 0C29.6875 0 38.2533 8.58167 38.2533 19.1425ZM15.9718 22.5236L18.3578 22.5236L21.5185 29.9759L25.9186 29.9759L25.9186 22.5236L28.3975 22.5236L28.3975 20.0292L25.9186 20.0292L25.9186 16.977L28.3975 16.977L28.3975 14.4981L25.9186 14.4981L25.9186 7.04576L22.0917 7.04576L22.0917 14.4981L19.9536 14.4981L16.762 7.04576L12.1605 7.04576L12.1605 14.4981L9.66605 14.4981L9.66605 16.977L12.1605 16.977L12.1605 20.0292L9.66605 20.0292L9.66605 22.5236L12.1605 22.5236L12.1605 29.9759L15.9718 29.9759L15.9718 22.5236ZM17.6606 20.0292L16.4831 16.977L15.9718 16.977L15.9718 20.0292L17.6606 20.0292ZM21.8128 20.0292L20.6508 16.977L22.0917 16.977L22.0917 20.0292L21.8128 20.0292ZM62.035 39.8683L59.8025 39.8683C58.33 35.3558 55.4483 31.35 51.6008 28.2467C51.6008 28.1042 51.5692 27.9458 51.5375 27.8033C50.73 24.9692 51.7275 22.3883 52.8833 20.5358C53.6908 19.2375 52.6458 17.575 51.1258 17.765C47.7217 18.1925 45.3783 19.4433 43.7633 20.8525C42.655 21.8183 41.8633 23.1167 41.515 24.5575C39.0767 34.6592 29.9725 42.18 19.1267 42.18C13.8542 42.18 9.00917 40.4067 5.13 37.43C3.78417 40.3433 3.05583 43.5258 3.05583 46.8667C3.05583 48.6717 3.2775 50.4292 3.68917 52.1233C3.68917 52.1233 3.68917 52.155 3.705 52.2025C4.1325 53.96 4.78167 55.6542 5.605 57.2533C6.6975 59.6125 8.28083 62.3675 10.4658 64.6C13.6167 67.8458 14.155 71.8675 14.2342 73.6092L14.2342 74.4642C14.2975 75.3192 15.01 76 15.8808 76L25.8875 76C26.79 76 27.5342 75.2717 27.5342 74.3533L27.5342 71.8833C28.9908 72.0733 30.4792 72.1842 31.9833 72.1842C33.1708 72.1842 34.3267 72.1208 35.4825 71.9942L35.4825 74.3533C35.4825 75.2558 36.2108 76 37.1292 76L47.1675 76C48.07 76 48.8142 75.2717 48.8142 74.3533L48.8142 71.8833C48.83 71.06 49.115 67.7825 52.2183 64.98L52.5508 64.695C52.5825 64.6633 52.6142 64.6475 52.6458 64.6158C56.0975 61.5442 58.6467 57.7125 59.9608 53.4375L62.0667 53.4375C63.745 53.4375 65.1067 52.0758 65.1067 50.3975L65.1067 42.9083C65.075 41.23 63.7133 39.8683 62.035 39.8683ZM49.5108 40.4067C48.1333 40.4067 47.025 39.2983 47.025 37.9208C47.025 36.5433 48.1333 35.435 49.5108 35.435C50.8883 35.435 51.9967 36.5433 51.9967 37.9208C51.9967 39.2983 50.8883 40.4067 49.5108 40.4067Z" id="Combined-Shape" fill="#7E51FF" fill-rule="evenodd" stroke="none" />
</svg>